<svg width="100mm" height="100mm" viewBox="0 0 100 100" xmlns="http://www.w3.org/2000/svg">
  <rect width="100" height="100" fill="#000008"/>
  <path fill="#ffffff" d="m 48.811322,81.866665 c -9.509946,-3.34689 -20.00796,-14.195156 -24.66058,-25.483929 -1.180684,-2.864088 -1.198415,-3.059603 -0.17408,-1.927214 1.201637,1.3287 2.196152,2.224876 3.15037,2.836956 0.644742,0.413373 1.08881,0.987148 1.785936,2.304677 4.102173,7.751954 10.516551,14.097799 18.659644,18.457375 2.490318,1.33269 2.53303,1.331893 5.294944,-0.189131 8.23497,-4.535141 14.579232,-10.898541 18.467834,-18.5276 0.460184,-0.903357 0.961472,-1.505062 1.696477,-2.039735 0.57382,-0.416566 1.726297,-1.469951 2.561239,-2.34059 3.102016,-3.232773 -1.69003,6.858173 -5.872795,12.36929 C 63.697614,75.260666 52.38803,83.12514 48.811322,81.866665 M 32.340578,57.187139 C 24.708444,55.145808 20.329033,47.041927 20.036481,34.41408 c -0.206318,-8.890726 0.04593,-9.139709 12.416122,-12.295074 4.574446,-1.166704 10.401303,-2.65501 12.94884,-3.306991 4.633278,-1.185856 4.633278,-1.185856 12.261383,0.758118 4.19566,1.069345 9.883092,2.514557 12.639364,3.211229 9.254468,2.340588 9.704981,2.858503 9.697728,11.154705 -0.01289,15.20465 -6.155675,23.979663 -16.521516,23.599807 -13.396936,-0.491581 -14.822624,-19.543478 -1.661824,-22.210457 4.384246,-0.888993 9.754948,0.408585 9.58248,2.314254 -0.585104,6.469537 -7.625688,10.772454 -14.051349,8.586682 -3.856365,-1.311943 -1.212115,5.814364 2.854596,7.693697 8.627455,3.986104 15.970262,-3.79458 16.940599,-17.952228 0.58188,-8.493313 0.788198,-8.282636 -10.9993,-11.241691 A 3050.4362,3020.5008 0 0 1 54.018421,21.658549 c -4.021578,-1.032636 -4.021578,-1.032636 -5.543975,-0.616071 -0.836554,0.229829 -5.887303,1.519428 -11.224156,2.867281 -12.836009,3.241552 -12.375019,3.099506 -13.292164,4.104211 -2.516107,2.757952 -0.864761,15.954788 2.674067,21.377324 4.956456,7.591552 15.465753,7.101569 17.549881,-0.818767 0.718888,-2.73481 0.543195,-3.021298 -1.441,-2.34378 -6.179852,2.109961 -12.374212,-1.394937 -13.898221,-7.863677 -0.775302,-3.290232 7.167921,-4.610154 12.413704,-2.063676 12.540234,6.088882 4.671157,24.518326 -8.915979,20.885745 m 9.775904,-13.773005 c 4.782375,-1.572096 -3.78786,-6.524601 -9.10376,-5.261336 -1.281424,0.304842 -1.233068,0.164391 -0.53836,1.544164 1.8899,3.753084 5.407775,5.109715 9.642926,3.717172 m 21.724586,0.02634 c 1.813337,-0.794027 3.695984,-2.840148 4.208554,-4.572645 0.352997,-1.190645 -4.964514,-1.257679 -7.474173,-0.09497 -2.162304,1.001515 -4.134409,2.842543 -4.134409,3.858421 0,1.077326 5.431952,1.671849 7.400028,0.80919"/>
</svg>
