<svg width="100mm" height="100mm" viewBox="0 0 100 100" xmlns="http://www.w3.org/2000/svg">
  <rect width="100" height="100" fill="#ffffff"/>
  <path fill="#000000" d="M 48.514153,89.833331 C 36.62672,85.649719 23.504203,72.089386 17.688427,57.97842 c -1.475855,-3.58011 -1.498018,-3.824504 -0.2176,-2.409018 1.502047,1.660876 2.745191,2.781095 3.937963,3.546196 0.805928,0.516716 1.361012,1.233935 2.23242,2.880846 5.127716,9.689942 13.145689,17.622248 23.324555,23.071718 3.112897,1.665863 3.166288,1.664867 6.61868,-0.236413 10.293712,-5.668926 18.22404,-13.623176 23.084792,-23.1595 0.57523,-1.129197 1.20184,-1.881328 2.120597,-2.549669 0.717275,-0.520707 2.157871,-1.837439 3.201548,-2.925737 3.87752,-4.040967 -2.112537,8.572716 -7.340993,15.461612 -7.528372,9.917378 -21.665352,19.74797 -26.136236,18.174876 M 27.925723,58.983924 C 18.385555,56.43226 12.911291,46.302409 12.545601,30.5176 12.287704,19.404192 12.603017,19.092964 28.065754,15.148757 c 5.718057,-1.45838 13.001628,-3.318762 16.18605,-4.133738 5.791597,-1.4823205 5.791597,-1.4823205 15.326729,0.947647 5.244575,1.336682 12.353864,3.143197 15.799205,4.014036 11.568084,2.925735 12.131226,3.573129 12.122159,13.943382 -0.01611,19.005812 -7.694593,29.974579 -20.651895,29.499758 -16.74617,-0.614476 -18.528279,-24.429347 -2.07728,-27.763071 5.480308,-1.111241 12.193686,0.510731 11.978101,2.892818 -0.73138,8.086921 -9.532111,13.465567 -17.564187,10.733352 -4.820456,-1.639929 -1.515144,7.267955 3.568245,9.617122 C 73.5372,59.882692 82.715709,50.156838 83.92863,32.459778 84.65598,21.843136 84.913878,22.106483 70.179505,18.407664 A 3813.0453,3775.626 0 0 1 55.023026,14.573186 c -5.026972,-1.290795 -5.026972,-1.290795 -6.929969,-0.770089 -1.045692,0.287287 -7.359128,1.899286 -14.030194,3.584102 -16.045012,4.05194 -15.468774,3.874382 -16.615205,5.130264 -3.145134,3.44744 -1.080952,19.943484 3.342583,26.721654 6.19557,9.489441 19.332191,8.876962 21.937352,-1.023458 0.898609,-3.418513 0.678993,-3.776623 -1.80125,-2.929725 -7.724815,2.637451 -15.467765,-1.743671 -17.372777,-9.829597 -0.969127,-4.112789 8.959902,-5.762692 15.51713,-2.579595 15.675293,7.611103 5.838946,30.647908 -11.144973,26.107182 M 40.145602,41.767668 c 5.977969,-1.965121 -4.734825,-8.155752 -11.379699,-6.576671 -1.601781,0.381053 -1.541336,0.205489 -0.67295,1.930206 2.362375,4.691354 6.759718,6.387143 12.053657,4.646465 m 27.155732,0.03292 c 2.266672,-0.992534 4.619981,-3.550186 5.260693,-5.715807 0.441246,-1.488306 -6.205642,-1.572099 -9.342716,-0.118707 -2.70288,1.251893 -5.168012,3.553178 -5.168012,4.823026 0,1.346657 6.789941,2.089811 9.250035,1.011488"/>
</svg>
